<?xml version="1.0" encoding="utf-8"?>
<!-- Generator: Adobe Illustrator 24.3.0, SVG Export Plug-In . SVG Version: 6.00 Build 0)  -->
<svg version="1.1" id="Layer_1" xmlns="http://www.w3.org/2000/svg" xmlns:xlink="http://www.w3.org/1999/xlink" x="0px" y="0px"
	 viewBox="0 0 625 595.9" style="enable-background:new 0 0 625 595.9;" xml:space="preserve">
<style type="text/css">
	.st0{ fill-rule:evenodd;clip-rule:evenodd; }
</style>
<g>
	<path fill="#314E29" class="st0" d="M255,276c4,1,7,2,9,2c55-56,46-48-1-125c-17-28-40-116,11-78c17,13,23,54,20,36c-12-77-68-35-88-52
		c-29-26,97-110,114-15c8,44,24-8,44,17c11,12-30,57-45,130c-4,16,16-67,54-111l73-70c6,2,29,27-14,69c-15,15-35,34-46,47
		c-47,59-41,91-41,91c2-8,4-17,6-26c1-4,2-8,4-11c23-41,60-83,98-114c39-34,74-42,92-16c6,8-7,133-90,158l-100,27c-2,20-54,50-72,59
		c16,4,31-24,72-32c54-11,26-9,64-29c14-8,34-15,50-25c29-16,64-49,131-19c46,20,18,19,0,77c-11,40-24,40-59,47c-41,8-64,10-107-15
		c-36-21-23-33-2-38c15-4,33-4,44,1v-3c-36-16,49,8,109-34c19-14-32,23-101,24c-18,0-2-4,24-30l-45,33c-61,18-27-2-9-19l-28,21
		c-28,24-121,17-117,59c3,29,63,50,27,130c-44,101-164,67-182,80c-31,23-49,61-147,69c-43,4,129-27,132-96c1-38-82-126,2-200
		C175,264,205,269,255,276z M347,234c-20,26-50,34-71,55c-1-1-2-3-3-4c46-48,61-41,76-67c12-23,23-23,31-28c4-2,4,1,9-4l11-28l18-32
		c-9,24-24,50-21,48c8-5,59-76,115-100c17-7-10,6-33,23c-15,11-31,26-31,30c0,1,96-25,30-4c-52,16-34,4-66,42l-16,21l55-2
		c-11,3-41,2-67,10C366,201,349,212,347,234z"/>
</g>
</svg>
